<svg width="115" height="698" viewBox="0 0 115 698" fill="none" xmlns="http://www.w3.org/2000/svg"><path fill-rule="evenodd" clip-rule="evenodd" d="M0 61.215c0 34.994 24.932 61.211 57.502 61.211 32.571 0 57.498-26.217 57.498-61.21C115 26.215 90.073 0 57.502 0 24.932 0 0 26.217 0 61.215zm94.59 0c0 22.158-14.017 36.678-37.088 36.678-23.07 0-37.087-14.52-37.087-36.678 0-22.163 14.017-36.678 37.087-36.678 23.07 0 37.088 14.516 37.088 36.678zM115 410.313c0 26.461-12.071 47.554-37.137 47.554H4.755a1.564 1.564 0 01-1.558-1.574v-19.904c0-.865.694-1.574 1.563-1.574h68.889s21.05.974 21.05-24.158v-3.558c0-25.132-21.05-24.158-21.05-24.158H4.755a1.568 1.568 0 01-1.563-1.574v-19.904c0-.869.694-1.574 1.563-1.574h73.113c25.061 0 37.132 21.093 37.132 47.56v2.864zM71.961 266.394L4.145 316.438a2.365 2.365 0 00-.953 1.899v19.994c0 .416.164.815.456 1.11.292.294.689.459 1.102.459h105.808c.863 0 1.563-.699 1.563-1.574v-19.904c0-.864-.695-1.574-1.563-1.574H41.416c-.76 0-1.077-.975-.462-1.425l70.199-50.928c.606-.45.968-1.155.968-1.915v-19.084c0-.869-.695-1.574-1.563-1.574H4.755c-.414.001-.81.168-1.102.463a1.58 1.58 0 00-.457 1.111V263.4a1.577 1.577 0 00.961 1.455c.19.079.393.12.598.12H71.5a.778.778 0 01.738.541.796.796 0 01-.272.878h-.005zm-47.803-42.936v-34.229c0-.87.694-1.575 1.563-1.575h84.529c.864 0 1.563-.704 1.563-1.574v-19.644c0-.417-.164-.818-.458-1.113a1.557 1.557 0 00-1.105-.461H25.721a1.57 1.57 0 01-1.564-1.575v-34.419a1.58 1.58 0 00-.457-1.113 1.559 1.559 0 00-1.106-.461H4.705c-.414 0-.812.166-1.105.461a1.58 1.58 0 00-.458 1.113v94.59c0 .417.165.818.458 1.113.293.296.69.461 1.105.461h17.889c.864 0 1.563-.699 1.563-1.574zm49.496 277.54s21.05-.974 21.05 24.158v3.558c0 25.132-21.05 24.158-21.05 24.158H4.755a1.54 1.54 0 00-1.107.459 1.572 1.572 0 00-.456 1.115v19.904a1.576 1.576 0 00.964 1.456c.19.079.394.119.6.118h73.112c25.061 0 37.132-21.093 37.132-47.554v-2.865c0-26.466-12.071-47.559-37.137-47.559H4.755a1.553 1.553 0 00-1.441.972 1.58 1.58 0 00-.118.602v19.904a1.576 1.576 0 00.965 1.456c.19.079.394.119.599.118h68.894zM47.357 631.741c-4.616 34.059-7.694 38.978-15.139 38.978-10.622 0-13.223-16.11-13.223-25.547 0-16.37 7.059-25.857 10.414-28.911l2.104-1.924a1.57 1.57 0 00.214-2.075l-10.711-15.08a1.572 1.572 0 00-1.136-.651 1.56 1.56 0 00-1.232.441C9.515 605.949.035 619.28.035 643.617c.005 32.8 16.573 50.384 35.936 50.384 14.667 0 25.24-13.716 27.78-43.436 2.467-28.876 8.677-35.518 16.812-35.518 8.13 0 14.255 8.262 14.255 26.201 0 17.944-3.41 28.141-9.485 35.089a31.983 31.983 0 01-2.591 2.674 1.572 1.572 0 00-.263 2.044l10.696 16.24a1.577 1.577 0 001.075.688 1.568 1.568 0 001.228-.343l2.557-2.134S115 681.745 115 646.521c0-35.223-16.24-54.932-37.475-54.932-19.035 0-27.284 18.854-30.168 40.152z" fill="#fff"/></svg>