<svg width="146" height="51" viewBox="0 0 146 51" fill="none" xmlns="http://www.w3.org/2000/svg"><path fill-rule="evenodd" clip-rule="evenodd" d="M72.15.119l-9.878 14.046a.278.278 0 00.23.44h19.755a.282.282 0 00.28-.298.278.278 0 00-.05-.142L72.608.119a.28.28 0 00-.359-.088.28.28 0 00-.1.088" fill="#F03241"/><path fill-rule="evenodd" clip-rule="evenodd" d="M132.332 26.553c-7.272 0-12.72 5.196-12.72 11.983 0 6.787 5.448 11.981 12.72 11.981 7.273 0 12.721-5.194 12.721-11.981s-5.448-11.983-12.721-11.983zm0 19.711c-4.605 0-7.622-2.92-7.622-7.728s3.017-7.729 7.622-7.729c4.606 0 7.622 2.921 7.622 7.729 0 4.807-3.016 7.728-7.622 7.728zm-72.547 4.253c-5.499 0-9.882-2.515-9.882-7.738V27.544c0-.179.145-.325.327-.325h4.136c.18 0 .327.145.327.326V41.9s-.202 4.387 5.02 4.387h.74c5.223 0 5.02-4.386 5.02-4.386V27.544c0-.18.147-.326.327-.326h4.136c.181 0 .328.145.328.326V42.78c0 5.222-4.384 7.737-9.884 7.737h-.595zm29.908-8.968l-10.4-14.132a.492.492 0 00-.394-.199h-4.155a.327.327 0 00-.326.325v22.049c0 .18.145.326.327.326h4.136c.18 0 .327-.145.327-.326V35.184c0-.159.203-.225.296-.097l10.584 14.629c.093.126.24.202.398.202h3.965a.326.326 0 00.328-.326V27.544a.325.325 0 00-.328-.325h-4.136a.327.327 0 00-.327.325v13.909a.163.163 0 01-.213.154.165.165 0 01-.082-.057v-.001zm8.923-9.962h7.113c.181 0 .327.145.327.326v17.615c0 .18.147.325.327.325h4.083a.327.327 0 00.327-.325V31.913c0-.18.146-.326.327-.326h7.153a.328.328 0 00.327-.325v-3.728a.327.327 0 00-.327-.326H98.616a.328.328 0 00-.327.326v3.728c0 .18.145.325.327.325zM40.939 41.902s.203 4.386-5.02 4.386h-.74c-5.222 0-5.02-4.386-5.02-4.386V27.544a.324.324 0 00-.327-.326h-4.136a.329.329 0 00-.303.201.322.322 0 00-.024.125V42.78c0 5.222 4.383 7.737 9.882 7.737h.596c5.5 0 9.883-2.515 9.883-7.738V27.544a.325.325 0 00-.327-.325h-4.136a.329.329 0 00-.303.201.324.324 0 00-.025.125v14.357zm-27.17-5.48c-7.077-.962-8.1-1.603-8.1-3.155 0-2.213 3.348-2.755 5.31-2.755 3.401 0 5.373 1.47 6.007 2.17l.4.438a.326.326 0 00.431.045l3.134-2.232a.327.327 0 00.044-.494c-1.866-1.903-4.636-3.878-9.694-3.878-6.816 0-10.47 3.453-10.47 7.488 0 3.056 2.85 5.26 9.027 5.79 6 .513 7.38 1.807 7.38 3.502 0 1.695-1.716 2.97-5.444 2.97-3.73 0-5.848-.71-7.292-1.976a6.627 6.627 0 01-.556-.54.327.327 0 00-.425-.054L.147 45.97a.327.327 0 00-.072.48l.443.532s2.86 3.535 10.18 3.535 11.415-3.384 11.415-7.809c0-3.966-3.918-5.685-8.344-6.286z" fill="#000"/></svg>