<svg width="221" height="77" viewBox="0 0 221 77" fill="none" xmlns="http://www.w3.org/2000/svg"><path fill-rule="evenodd" clip-rule="evenodd" d="M110.15.18L95.188 21.455a.421.421 0 00.35.666h29.921a.427.427 0 00.378-.227.422.422 0 00-.029-.439L110.843.18a.429.429 0 00-.696 0" fill="#F03241"/><path fill-rule="evenodd" clip-rule="evenodd" d="M201.306 40.22c-11.015 0-19.267 7.869-19.267 18.15 0 10.28 8.252 18.147 19.267 18.147 11.017 0 19.269-7.867 19.269-18.148 0-10.28-8.252-18.15-19.269-18.15zm0 29.855c-6.974 0-11.545-4.424-11.545-11.706 0-7.282 4.571-11.706 11.545-11.706 6.976 0 11.545 4.424 11.545 11.706 0 7.282-4.569 11.706-11.545 11.706zM91.421 76.517c-8.329 0-14.968-3.81-14.968-11.721V41.72c0-.27.22-.492.495-.492h6.265c.273 0 .496.22.496.494v21.743s-.307 6.645 7.604 6.645h1.12c7.911 0 7.604-6.645 7.604-6.645V41.72c0-.273.222-.493.496-.493h6.265c.273 0 .495.219.495.493v23.077c0 7.91-6.639 11.72-14.97 11.72h-.902zm45.301-13.584L120.97 41.527a.74.74 0 00-.598-.3h-6.293a.493.493 0 00-.494.492v33.396c0 .273.22.494.496.494h6.265c.272 0 .495-.22.495-.494V53.292c0-.24.307-.34.449-.146l16.03 22.157a.75.75 0 00.603.306h6.007c.274 0 .495-.22.495-.494V41.72a.49.49 0 00-.495-.492h-6.265a.497.497 0 00-.496.492v21.067a.247.247 0 01-.322.234.25.25 0 01-.125-.087v-.001zm13.515-15.089h10.775c.273 0 .495.22.495.494v26.68c0 .273.222.493.496.493h6.183a.497.497 0 00.496-.493v-26.68c0-.273.221-.494.495-.494h10.834a.497.497 0 00.496-.493v-5.647a.496.496 0 00-.496-.493h-29.774a.496.496 0 00-.495.493v5.647c0 .272.22.493.495.493zm-87.36 15.623s.306 6.644-7.605 6.644h-1.12c-7.91 0-7.604-6.644-7.604-6.644V41.72a.49.49 0 00-.495-.493h-6.265a.496.496 0 00-.496.493v23.077c0 7.91 6.64 11.72 14.969 11.72h.901c8.331 0 14.97-3.81 14.97-11.721V41.72a.49.49 0 00-.495-.492h-6.265a.497.497 0 00-.458.305.49.49 0 00-.038.189v21.745zm-41.154-8.3c-10.72-1.457-12.27-2.428-12.27-4.779 0-3.352 5.072-4.173 8.042-4.173 5.153 0 8.14 2.228 9.1 3.287l.606.664a.493.493 0 00.653.067l4.747-3.38a.497.497 0 00.178-.569.496.496 0 00-.112-.179c-2.826-2.883-7.022-5.875-14.683-5.875-10.324.002-15.859 5.231-15.859 11.343 0 4.63 4.318 7.966 13.673 8.769 9.089.778 11.18 2.738 11.18 5.306 0 2.566-2.601 4.5-8.248 4.5-5.648 0-8.858-1.077-11.045-2.995a10.136 10.136 0 01-.841-.817.495.495 0 00-.644-.084L1.088 69.63a.496.496 0 00-.108.727l.672.806s4.331 5.355 15.418 5.355c11.088 0 17.291-5.126 17.291-11.828 0-6.008-5.934-8.612-12.638-9.522z" fill="#fff"/></svg>