<svg width="22" height="22" viewBox="0 0 22 22" fill="none" xmlns="http://www.w3.org/2000/svg"><g clip-path="url(#clip0_114_1125)"><path d="M10.862 19.914c-5 0-9.052-4.053-9.052-9.052 0-5 4.053-9.052 9.052-9.052 5 0 9.052 4.053 9.052 9.052 0 5-4.053 9.052-9.052 9.052zm-4.514-3.39a7.21 7.21 0 004.514 1.58 7.214 7.214 0 004.677-1.713 6.319 6.319 0 00-4.532-1.908 6.32 6.32 0 00-4.66 2.042zm-1.265-1.299a8.124 8.124 0 015.924-2.553 8.12 8.12 0 015.759 2.385 7.241 7.241 0 10-11.683.169v-.001zm5.779-3.458a3.62 3.62 0 110-7.241 3.62 3.62 0 010 7.241zm0-1.81a1.81 1.81 0 100-3.62 1.81 1.81 0 000 3.62z" fill="#000"/></g><defs><clipPath id="clip0_114_1125"><path fill="#fff" d="M0 0h21.724v21.724H0z"/></clipPath></defs></svg>