<svg width="23" height="23" viewBox="0 0 23 23" fill="none" xmlns="http://www.w3.org/2000/svg">
<path d="M22.9449 10.373L19.6584 2.15871C19.5417 1.87121 19.2254 1.64286 18.8951 1.64286H13.8141C13.474 0.689179 12.5702 0 11.5004 0C10.4306 0 9.52684 0.689179 9.18668 1.64286H4.1057C3.77294 1.64286 3.45497 1.87532 3.34241 2.15871L0.0558711 10.373C0.0254707 10.4502 0.000821634 10.7229 0 10.709C0.0180759 12.9597 1.85114 14.7857 4.1057 14.7857C6.36027 14.7857 8.19333 12.9597 8.21058 10.7098C8.21141 10.6293 8.16622 10.4009 8.15471 10.3738L5.31926 3.28571H9.18668C9.43482 3.98146 9.98285 4.52936 10.6788 4.77743V18.0714H7.39224C6.03326 18.0714 4.92734 19.1771 4.92734 20.5357V22.1786C4.92734 22.632 5.29461 23 5.74897 23H17.2518C17.7062 23 18.0735 22.632 18.0735 22.1786V20.5357C18.0735 19.1771 16.9676 18.0714 15.6086 18.0714H12.322V4.77743C13.018 4.52936 13.566 3.98146 13.8141 3.28571H17.6816L14.8461 10.373C14.8157 10.4502 14.791 10.7229 14.7902 10.709C14.8075 12.9597 16.6405 14.7857 18.8951 14.7857C21.1497 14.7857 22.9827 12.9597 23 10.7098C23.0008 10.6293 22.9556 10.4009 22.9449 10.373ZM16.4302 20.5357V21.3571H6.5706V20.5357C6.5706 20.0831 6.9387 19.7143 7.39224 19.7143H15.6086C16.0621 19.7143 16.4302 20.0831 16.4302 20.5357ZM20.9681 9.85714H16.8229L18.8951 4.67557L20.9681 9.85714ZM4.1057 4.67557L6.17868 9.85714H2.03272L4.1057 4.67557ZM4.1057 13.1429C3.03429 13.1429 2.12064 12.4561 1.7813 11.5H6.4301C6.09077 12.4561 5.17711 13.1429 4.1057 13.1429ZM11.5004 3.28571C11.0469 3.28571 10.6788 2.91689 10.6788 2.46429C10.6788 2.01168 11.0469 1.64286 11.5004 1.64286C11.9539 1.64286 12.322 2.01168 12.322 2.46429C12.322 2.91689 11.9539 3.28571 11.5004 3.28571ZM18.8951 13.1429C17.8237 13.1429 16.91 12.4561 16.5707 11.5H21.2195C20.8802 12.4561 19.9665 13.1429 18.8951 13.1429Z" fill="#BEBEBE"/>
</svg>
