<svg width="21" height="19" viewBox="0 0 21 19" fill="none" xmlns="http://www.w3.org/2000/svg"><path d="M20.95 9.577l-3.001-7.584a.783.783 0 00-.697-.476h-4.64A2.247 2.247 0 0010.5 0c-.976 0-1.802.636-2.112 1.517h-4.64a.783.783 0 00-.696.476L.05 9.577c-.028.071-.05.323-.051.31.017 2.078 1.69 3.764 3.749 3.764 2.058 0 3.732-1.686 3.748-3.763 0-.074-.04-.285-.051-.31l-2.59-6.544h3.532A2.26 2.26 0 009.75 4.41v10.04h-3c-1.241 0-2.251 1.02-2.251 2.275v1.517c0 .418.335.758.75.758h10.503c.414 0 .75-.34.75-.758v-1.517c0-1.255-1.01-2.275-2.25-2.275H11.25V4.41a2.26 2.26 0 001.362-1.376h3.531l-2.589 6.543c-.028.071-.05.31-.05.31.015 2.078 1.688 3.764 3.747 3.764S20.984 11.965 21 9.888c0-.074-.04-.285-.05-.31zm-5.948 7.148v.758H5.998v-.758c0-.418.336-.759.75-.759h7.502c.414 0 .75.34.75.759zM19.145 9.1H15.36l1.892-4.784L19.145 9.1zM3.749 4.317L5.64 9.1H1.856l1.893-4.784zm0 7.817a2.257 2.257 0 01-2.123-1.516h4.245a2.257 2.257 0 01-2.122 1.516zm6.751-9.1a.755.755 0 01-.75-.759c0-.418.336-.758.75-.758.415 0 .75.34.75.758a.755.755 0 01-.75.759zm6.752 9.1a2.257 2.257 0 01-2.122-1.516h4.244a2.257 2.257 0 01-2.122 1.516z" fill="#000"/></svg>