<svg width="23" height="23" viewBox="0 0 23 23" fill="none" xmlns="http://www.w3.org/2000/svg"><path d="M22.945 10.373l-3.287-8.214a.858.858 0 00-.763-.516h-5.08A2.461 2.461 0 0011.5 0c-1.07 0-1.973.69-2.313 1.643H4.106a.857.857 0 00-.764.516L.056 10.373c-.03.077-.055.35-.056.336a4.112 4.112 0 004.106 4.077A4.11 4.11 0 008.21 10.71c0-.08-.045-.31-.056-.336L5.319 3.286h3.868a2.462 2.462 0 001.492 1.491v13.294H7.392a2.468 2.468 0 00-2.465 2.465v1.643c0 .453.368.821.822.821h11.503a.821.821 0 00.822-.821v-1.643a2.468 2.468 0 00-2.465-2.465h-3.287V4.777a2.462 2.462 0 001.492-1.491h3.868l-2.836 7.087c-.03.077-.055.35-.056.336a4.11 4.11 0 004.105 4.077A4.11 4.11 0 0023 10.71c0-.08-.044-.31-.055-.337zM16.43 20.536v.821H6.57v-.821c0-.453.369-.822.822-.822h8.217c.453 0 .821.37.821.822zm4.538-10.679h-4.145l2.072-5.181 2.073 5.181zM4.106 4.676l2.073 5.181H2.033l2.073-5.181zm0 8.467A2.47 2.47 0 011.78 11.5h4.65a2.47 2.47 0 01-2.325 1.643zM11.5 3.286a.822.822 0 11.002-1.645.822.822 0 01-.002 1.645zm7.395 9.857a2.47 2.47 0 01-2.324-1.643h4.648a2.47 2.47 0 01-2.324 1.643z" fill="#000"/></svg>