<svg width="63" height="63" viewBox="0 0 63 63" fill="none" xmlns="http://www.w3.org/2000/svg"><path d="M53.377 13.076L41.513 1.85A6.74 6.74 0 0036.862 0H14.273a6.775 6.775 0 00-6.767 6.768v49.464A6.775 6.775 0 0014.273 63h34.454a6.775 6.775 0 006.767-6.768v-38.24a6.796 6.796 0 00-2.117-4.916zm-3.585 1.69h-9.187a.616.616 0 01-.615-.616V5.492l9.802 9.274zm-1.065 44.543H14.273a3.08 3.08 0 01-3.076-3.077V6.768a3.08 3.08 0 013.076-3.077H36.3v10.46a4.312 4.312 0 004.306 4.306h11.198v37.775a3.08 3.08 0 01-3.076 3.077z" fill="#000"/><path d="M44.666 24.61h-27.07a1.846 1.846 0 000 3.69h27.07a1.846 1.846 0 000-3.69zm0 9.843h-27.07a1.846 1.846 0 000 3.691h27.07a1.846 1.846 0 000-3.69zm-18.122 9.844h-8.948a1.846 1.846 0 000 3.691h8.948a1.846 1.846 0 000-3.691z" fill="#000"/></svg>