<svg width="19" height="19" viewBox="0 0 19 19" fill="none" xmlns="http://www.w3.org/2000/svg"><g clip-path="url(#clip0_14_757)" fill="#fff"><path d="M18.981 5.586c-.044-1.01-.207-1.704-.441-2.305a4.636 4.636 0 00-1.099-1.685A4.676 4.676 0 0015.76.501C15.155.267 14.464.104 13.455.06 12.438.011 12.115 0 9.535 0S6.633.011 5.62.056C4.61.1 3.916.264 3.315.497a4.636 4.636 0 00-1.686 1.099A4.678 4.678 0 00.534 3.277C.301 3.882.137 4.573.093 5.582.044 6.6.033 6.922.033 9.502s.011 2.902.056 3.916c.045 1.01.208 1.703.442 2.305a4.69 4.69 0 001.098 1.685c.475.482 1.05.857 1.682 1.095.605.233 1.295.397 2.305.441 1.013.045 1.336.056 3.916.056s2.902-.011 3.915-.056c1.01-.044 1.704-.207 2.305-.441a4.86 4.86 0 002.78-2.78c.234-.605.397-1.296.442-2.305.044-1.014.056-1.336.056-3.916s-.004-2.903-.049-3.916zm-1.71 7.757c-.041.928-.197 1.43-.327 1.764a3.152 3.152 0 01-1.804 1.803c-.334.13-.839.286-1.763.327-1.002.045-1.303.056-3.838.056s-2.84-.011-3.838-.056c-.928-.04-1.429-.197-1.763-.327a2.923 2.923 0 01-1.091-.709 2.954 2.954 0 01-.71-1.09c-.13-.335-.285-.84-.326-1.764-.044-1.002-.055-1.303-.055-3.838s.01-2.84.055-3.838c.041-.927.197-1.429.327-1.763.152-.412.393-.786.713-1.09a2.95 2.95 0 011.09-.71c.335-.13.84-.286 1.764-.326 1.002-.045 1.303-.056 3.838-.056 2.538 0 2.839.011 3.838.056.927.04 1.428.196 1.763.326a2.91 2.91 0 011.09.71c.316.307.557.678.71 1.09.13.334.286.84.326 1.763.045 1.003.056 1.303.056 3.838s-.011 2.832-.056 3.834z"/><path d="M9.535 4.621a4.882 4.882 0 000 9.762 4.882 4.882 0 000-9.762zm0 8.047a3.167 3.167 0 11.001-6.333 3.167 3.167 0 010 6.333zm6.214-8.24a1.14 1.14 0 11-2.28 0 1.14 1.14 0 012.28 0z"/></g><defs><clipPath id="clip0_14_757"><path fill="#fff" d="M0 0h19v19H0z"/></clipPath></defs></svg>