<svg width="16" height="19" viewBox="0 0 16 19" fill="none" xmlns="http://www.w3.org/2000/svg"><path d="M7.977 0C2.769 0 0 3.337 0 6.976c0 1.687.943 3.792 2.452 4.459.23.103.354.06.405-.153.045-.162.244-.94.34-1.307a.336.336 0 00-.08-.33c-.502-.58-.9-1.635-.9-2.625 0-2.538 2.018-5.002 5.451-5.002 2.969 0 5.046 1.928 5.046 4.687 0 3.117-1.65 5.274-3.793 5.274-1.186 0-2.07-.931-1.79-2.083.339-1.372 1.003-2.847 1.003-3.836 0-.887-.502-1.62-1.525-1.62-1.208 0-2.188 1.195-2.188 2.8 0 1.02.361 1.71.361 1.71l-1.416 5.727c-.376 1.526.05 3.997.087 4.21.023.117.155.154.228.058.118-.154 1.562-2.215 1.967-3.704.147-.543.752-2.743.752-2.743.398.718 1.546 1.32 2.77 1.32 3.638 0 6.267-3.198 6.267-7.167C15.424 2.847 12.167 0 7.977 0z" fill="#fff"/></svg>