<svg width="23" height="20" viewBox="0 0 23 20" fill="none" xmlns="http://www.w3.org/2000/svg"><path d="M7.076 19.01c8.491 0 13.134-7.034 13.134-13.134 0-.2-.004-.399-.013-.597A9.394 9.394 0 0022.5 2.89a9.21 9.21 0 01-2.65.727 4.634 4.634 0 002.029-2.553 9.258 9.258 0 01-2.931 1.12 4.617 4.617 0 00-7.867 4.21A13.107 13.107 0 011.566 1.57 4.605 4.605 0 00.94 3.89c0 1.601.815 3.015 2.054 3.842a4.58 4.58 0 01-2.09-.577l-.001.06a4.617 4.617 0 003.703 4.524 4.63 4.63 0 01-2.085.08 4.621 4.621 0 004.313 3.206A9.261 9.261 0 011.1 17c-.37 0-.739-.02-1.1-.063a13.067 13.067 0 007.076 2.073z" fill="#fff"/></svg>