<svg width="44" height="44" viewBox="0 0 44 44" fill="none" xmlns="http://www.w3.org/2000/svg"><path d="M21.603 0a21.603 21.603 0 100 43.206 21.603 21.603 0 000-43.206zm5.475 19.557l-.358 3.01a.568.568 0 01-.569.506h-3.126v8.925a.403.403 0 01-.398.407h-3.184a.404.404 0 01-.398-.41l.017-8.922h-2.368a.569.569 0 01-.568-.569v-3.007a.569.569 0 01.568-.569h2.351v-2.916c0-3.374 2.01-5.21 4.946-5.21H26.4a.569.569 0 01.568.568v2.533a.569.569 0 01-.568.568h-1.476c-1.597.026-1.898.79-1.898 1.933v2.516h3.502a.57.57 0 01.551.637z" fill="#A5A5A5" fill-opacity=".3"/></svg>