<svg width="40" height="58" viewBox="0 0 40 58" fill="none" xmlns="http://www.w3.org/2000/svg">
<path d="M34.264 35.5794C34.2286 35.5571 34.1922 35.545 34.1558 35.5258C34.5218 34.0262 34.6715 31.6641 34.6715 28.1523C34.6725 24.327 30.4306 17.1799 20.2126 17.1799C9.99566 17.1799 5.75376 24.327 5.75376 28.1533C5.75376 31.6651 5.90341 34.0272 6.26946 35.5268C6.23306 35.546 6.19666 35.5571 6.16025 35.5804C5.38872 36.0647 5.04492 37.0668 5.04492 38.8263C5.04492 41.8436 6.08442 44.3453 7.63152 45.0491C7.96016 45.1977 8.30598 45.2645 8.64169 45.2554C8.98246 49.4032 10.7692 51.3245 11.9927 52.641C12.1212 52.7796 12.2354 52.9049 12.3477 53.0293C12.2921 53.6219 12.0564 54.902 11.0604 55.9031C10.6661 56.2995 10.6681 56.9385 11.0645 57.3329C11.2617 57.5291 11.5205 57.6272 11.7784 57.6272C12.0382 57.6272 12.2981 57.5281 12.4953 57.3289C13.2648 56.5543 13.7198 55.6857 13.9918 54.9061C15.8271 56.9679 16.6371 57.6272 20.2126 57.6272C23.7892 57.6272 24.5981 56.9679 26.4334 54.9061C26.7054 55.6857 27.1604 56.5553 27.931 57.3289C28.1281 57.5281 28.388 57.6272 28.6479 57.6272C28.9057 57.6272 29.1646 57.5291 29.3608 57.3329C29.7572 56.9385 29.7592 56.2985 29.3648 55.9021C28.3698 54.902 28.1332 53.6239 28.0766 53.0303C28.1898 52.9049 28.3051 52.7775 28.4345 52.639C29.6571 51.3235 31.4428 49.4012 31.7846 45.2543C32.1294 45.2705 32.4671 45.1977 32.7947 45.0481C34.3419 44.3453 35.3803 41.8446 35.3803 38.8263C35.3803 37.0668 35.0365 36.0647 34.264 35.5794ZM20.2126 19.2023C28.8946 19.2023 32.6501 25.1288 32.6501 28.1533C32.6501 32.5317 32.3832 34.4195 32.1638 35.2305C31.7836 34.3053 31.4114 32.4659 31.19 31.3708C30.5883 28.397 30.191 26.4312 28.7065 26.4312C28.0766 26.4312 27.6023 26.5172 27.0017 26.6254C25.9329 26.8185 24.319 27.1097 20.2055 27.1401C20.1853 27.1401 20.1641 27.1411 20.1439 27.1421C17.9102 27.132 16.2579 26.6375 14.9272 26.2391C13.9969 25.96 13.192 25.7194 12.4245 25.7194C10.6024 25.7194 10.0038 28.313 9.24638 31.5963C8.9956 32.6813 8.6154 34.3285 8.25441 35.2062C8.03599 34.3811 7.77511 32.4882 7.77511 28.1533C7.77612 25.1288 11.5316 19.2023 20.2126 19.2023ZM31.9565 43.2087C31.8918 43.236 31.7755 43.2906 31.4944 43.0459C31.193 42.785 30.7724 42.7244 30.4114 42.8882C30.0514 43.052 29.8188 43.412 29.8188 43.8084C29.8188 48.1787 28.2293 49.8886 26.9521 51.2628C26.6124 51.6288 26.2898 51.9767 26.0188 52.3468C25.6326 52.7624 25.3029 53.1345 25.0076 53.4661C23.3999 55.2782 23.1107 55.6048 20.2126 55.6048C17.3136 55.6048 17.0244 55.2782 15.4156 53.4641C15.1213 53.1325 14.7917 52.7614 14.4064 52.3468C14.1364 51.9757 13.8139 51.6298 13.4741 51.2638C12.196 49.8896 10.6064 48.1797 10.6064 43.8084C10.6064 43.412 10.3749 43.052 10.0139 42.8882C9.65489 42.7234 9.2302 42.785 8.93089 43.0459C8.65079 43.2896 8.53046 43.237 8.46777 43.2087C7.90353 42.9509 7.06728 41.3805 7.06728 38.8263C7.06728 38.0012 7.16031 37.5835 7.22604 37.3914C7.2321 37.3944 7.23716 37.3965 7.24424 37.3995C7.51321 37.6048 7.82162 37.7029 8.17958 37.7029H8.18059C9.91477 37.7029 10.4901 35.2083 11.2182 32.0504C11.5478 30.6226 12.0888 28.2746 12.561 27.7458C13.0221 27.7781 13.641 27.9642 14.3478 28.1755C15.7402 28.5931 17.6473 29.1644 20.2126 29.1644C20.2389 29.1644 20.2652 29.1634 20.2905 29.1614C24.5263 29.127 26.2312 28.8196 27.3617 28.6154C27.7641 28.5426 28.0655 28.488 28.3799 28.4657C28.66 29.0664 28.9856 30.6691 29.2071 31.7723C29.8512 34.9545 30.4074 37.7039 32.2457 37.7039H32.2467H32.2477C32.6046 37.7039 32.9141 37.6058 33.182 37.4005C33.1881 37.3975 33.1931 37.3955 33.1992 37.3924C33.2649 37.5845 33.358 38.0012 33.358 38.8263C33.358 41.3805 32.5217 42.9509 31.9565 43.2087Z" fill="black" stroke="black" stroke-width="0.1"/>
<path d="M18.1907 9.09052H20.8329L19.2534 13.8269C19.0765 14.3567 19.3626 14.9291 19.8925 15.106C19.9997 15.1414 20.1079 15.1576 20.2131 15.1576C20.6367 15.1576 21.0311 14.8896 21.1727 14.466L23.195 8.39887C23.2992 8.09046 23.2466 7.75172 23.0565 7.4878C22.8654 7.22388 22.56 7.06816 22.2354 7.06816H19.5932L21.1727 2.33179C21.3486 1.80193 21.0635 1.2296 20.5336 1.05265C20.0027 0.874679 19.4314 1.16287 19.2545 1.69171L17.2321 7.75879C17.129 8.0672 17.1815 8.40595 17.3716 8.66987C17.5607 8.9348 17.8661 9.09052 18.1907 9.09052Z" fill="black" stroke="black" stroke-width="0.1"/>
<path d="M39.1292 5.34194C38.7339 4.94657 38.0948 4.94657 37.6994 5.34194L32.6435 10.3978C32.413 10.6274 32.3078 10.954 32.3604 11.2745C32.413 11.5951 32.6162 11.8711 32.9064 12.0167L35.5385 13.3323L31.7163 16.3901C31.2804 16.739 31.2097 17.375 31.5585 17.8108C31.7577 18.0616 32.051 18.191 32.3482 18.191C32.5697 18.191 32.7922 18.1182 32.9792 17.9696L38.0351 13.9248C38.3041 13.7095 38.4447 13.3717 38.4082 13.0289C38.3729 12.6861 38.1635 12.3858 37.8551 12.2311L35.0653 10.8367L39.1292 6.77276C39.5246 6.37638 39.5246 5.73731 39.1292 5.34194Z" fill="black" stroke="black" stroke-width="0.1"/>
<path d="M9.14148 17.4995C9.28304 17.9232 9.67741 18.1911 10.1011 18.1911C10.2063 18.1911 10.3144 18.1739 10.4206 18.1385C10.9505 17.9616 11.2366 17.3893 11.0597 16.8594L9.03733 10.7923C8.9443 10.5142 8.736 10.2898 8.465 10.1785C8.19299 10.0663 7.88761 10.0764 7.62572 10.2079L4.67105 11.6852L2.98339 5.77787C2.82969 5.24094 2.27152 4.92949 1.73357 5.08319C1.19663 5.23689 0.8862 5.79607 1.03889 6.33301L3.06125 13.4113C3.14417 13.7005 3.35146 13.9381 3.6265 14.0594C3.90053 14.1788 4.21602 14.1727 4.486 14.0382L7.4882 12.5376L9.14148 17.4995Z" fill="black" stroke="black" stroke-width="0.1"/>
</svg>
