<svg width="43" height="33" viewBox="0 0 43 33" fill="none" xmlns="http://www.w3.org/2000/svg">
<path d="M38.0746 21.9513V23.7431C38.0746 25.723 36.471 27.3266 34.4911 27.3266H4.92725C2.94737 27.3266 1.34375 25.723 1.34375 23.7431V6.72144C1.34375 4.74156 2.94737 3.13794 4.92725 3.13794H34.4911C36.471 3.13794 38.0746 4.74156 38.0746 6.72144V8.5132H39.8664C40.8554 8.5132 41.6582 9.3159 41.6582 10.3049V20.1596C41.6582 21.1486 40.8554 21.9513 39.8664 21.9513H38.0746Z" fill="#FAFAFA"/>
<path d="M39.2687 7.16945V7.31945H39.4187H39.8505C41.4967 7.31945 42.8361 8.65881 42.8361 10.305V20.1596C42.8361 21.8058 41.4967 23.1452 39.8505 23.1452H39.4187H39.2687V23.2952V23.7432C39.2687 26.3784 37.1248 28.5205 34.4914 28.5205H25.9805C25.3216 28.5205 24.7867 27.9856 24.7867 27.3267C24.7867 26.6677 25.3216 26.1328 25.9805 26.1328H34.4914C35.8087 26.1328 36.881 25.0605 36.881 23.7432V21.9514C36.881 21.2925 37.4159 20.7576 38.0749 20.7576H39.8505C40.1806 20.7576 40.4484 20.4898 40.4484 20.1596V10.305C40.4484 9.97491 40.1806 9.70707 39.8505 9.70707H38.0749C37.4159 9.70707 36.881 9.1722 36.881 8.51326V6.72151C36.881 5.40415 35.8087 4.33182 34.4914 4.33182H29.564C28.9051 4.33182 28.3702 3.79695 28.3702 3.138C28.3702 2.47906 28.9051 1.94419 29.564 1.94419H34.4914C37.1248 1.94419 39.2687 4.0863 39.2687 6.72151V7.16945Z" fill="black" stroke="#F4F4F4" stroke-width="0.3"/>
<path d="M11.6464 28.5205H4.92732C2.29207 28.5205 0.15 26.3784 0.15 23.7432V6.72151C0.15 4.08626 2.29207 1.94419 4.92732 1.94419H17.0216C17.6806 1.94419 18.2155 2.47906 18.2155 3.138C18.2155 3.79695 17.6806 4.33182 17.0216 4.33182H4.92732C3.60996 4.33182 2.53763 5.40415 2.53763 6.72151V23.7432C2.53763 25.0605 3.60996 26.1328 4.92732 26.1328H11.6464C12.3053 26.1328 12.8402 26.6677 12.8402 27.3267C12.8402 27.9856 12.3053 28.5205 11.6464 28.5205Z" fill="black" stroke="#F4F4F4" stroke-width="0.3"/>
<path d="M18.8328 19.7443L18.8735 19.5616H18.6864H12.9904C12.5398 19.5616 12.1277 19.3085 11.9258 18.9061L11.9257 18.9059C11.7233 18.5044 11.7618 18.022 12.0289 17.6594L12.029 17.6594L24.5515 0.637713L24.5518 0.6374C24.886 0.180654 25.4953 0.0216544 26.0107 0.260299L26.0113 0.260545C26.5255 0.496148 26.8038 1.05948 26.6765 1.61168L26.6765 1.61189L24.1806 12.5111L24.1386 12.6946H24.3268H30.46C30.9138 12.6946 31.3274 12.9509 31.5277 13.3564L31.528 13.3568C31.73 13.7625 31.684 14.248 31.4101 14.6095L31.5296 14.7001L31.4101 14.6095L18.5148 31.6311L18.5147 31.6313C18.2841 31.9367 17.9294 32.1039 17.5647 32.1039C17.3958 32.1039 17.2257 32.0689 17.0633 31.9941C16.5543 31.7587 16.2786 31.1984 16.3996 30.6504L18.8328 19.7443ZM15.5267 16.9351L15.351 17.174H15.6476H20.3634C20.7261 17.174 21.0682 17.3393 21.2944 17.621C21.5206 17.9046 21.6064 18.2739 21.5269 18.6269L21.5268 18.6272L20.0719 25.1474L20.3379 25.2706L27.874 15.3228L28.0562 15.0822H27.7544H22.639C22.2744 15.0822 21.9325 14.9168 21.7065 14.6319L21.7062 14.6315C21.4786 14.3466 21.3942 13.9759 21.4754 13.6209C21.4754 13.6209 21.4754 13.6209 21.4754 13.6208L22.9016 7.39456L22.6346 7.27218L15.5267 16.9351ZM26.0738 0.124178C26.6525 0.389357 26.966 1.02364 26.8227 1.64538L24.4307 0.548823C24.807 0.0345905 25.4932 -0.144585 26.0738 0.124178Z" fill="black" stroke="#F4F4F4" stroke-width="0.3"/>
</svg>
