<svg width="61" height="51" viewBox="0 0 61 51" fill="none" xmlns="http://www.w3.org/2000/svg">
<path d="M18.9314 4.38219C18.9314 5.01247 18.4204 5.52359 17.79 5.52359C17.1596 5.52359 16.6486 5.01259 16.6486 4.38219V1.29883C16.6486 0.668544 17.1596 0.157422 17.79 0.157422C18.4204 0.157422 18.9314 0.668544 18.9314 1.29883V4.38219Z" fill="black" stroke="#F4F4F4" stroke-width="0.1"/>
<path d="M4.27477 16.7565C4.90516 16.7565 5.41617 17.2677 5.41617 17.8979C5.41617 18.5283 4.90517 19.0394 4.27477 19.0394H1.19141C0.56101 19.0394 0.05 18.5282 0.05 17.8979C0.05 17.2677 0.56101 16.7565 1.19141 16.7565H4.27477Z" fill="black" stroke="#F4F4F4" stroke-width="0.1"/>
<path d="M8.23238 9.48176C7.94023 9.48176 7.64822 9.37026 7.42528 9.14743L5.24371 6.96574L5.24371 6.96574C4.79788 6.5199 4.79799 5.79717 5.2437 5.35144C5.68941 4.90585 6.41216 4.90595 6.85788 5.35144C6.85789 5.35144 6.85789 5.35145 6.85789 5.35145L9.03947 7.53314C9.4853 7.97898 9.48519 8.70172 9.03947 9.14744C8.81666 9.37025 8.52454 9.48176 8.23238 9.48176Z" fill="black" stroke="#F4F4F4" stroke-width="0.1"/>
<path d="M30.3336 6.96509L30.3678 6.99928L30.3336 6.96509L28.1553 9.1468C27.9324 9.37007 27.6401 9.4818 27.3476 9.4818C27.0556 9.4818 26.764 9.37053 26.5412 9.14818C26.0951 8.70268 26.0945 7.97993 26.5399 7.53388L26.5045 7.49855L26.5399 7.53388L28.7182 5.35217C29.1635 4.90612 29.8863 4.90565 30.3323 5.35081C30.7784 5.79631 30.779 6.51904 30.3336 6.96509Z" fill="black" stroke="#F4F4F4" stroke-width="0.1"/>
<path d="M6.85721 30.4416L6.8572 30.4417C6.63451 30.6641 6.34274 30.7754 6.05081 30.7754C5.75831 30.7754 5.46597 30.6637 5.24304 30.4404C4.79766 29.9942 4.79823 29.2716 5.24429 28.8262L7.42599 26.648C7.87205 26.2027 8.59479 26.2033 9.04017 26.6492C9.48555 27.0954 9.48497 27.818 9.03891 28.2634L6.85721 30.4416Z" fill="black" stroke="#F4F4F4" stroke-width="0.1"/>
<path d="M51.5484 23.7023L51.5572 23.7379L51.5938 23.7402C56.8082 24.066 60.9502 28.4119 60.9502 33.7069C60.9502 36.3097 59.9541 38.7738 58.1455 40.646C56.3419 42.5124 53.923 43.5932 51.3342 43.6893L51.334 43.6893C51.3198 43.6899 51.3055 43.6901 51.2911 43.6901C50.6804 43.6901 50.1742 43.2066 50.1513 42.5911C50.128 41.9611 50.6196 41.4315 51.2497 41.4081C55.4092 41.2538 58.6678 37.871 58.6678 33.7072C58.6678 29.4594 55.2121 26.0036 50.9644 26.0036C50.8683 26.0036 50.771 26.0063 50.6748 26.0118L50.6748 26.0118C50.078 26.046 49.5559 25.6135 49.478 25.0208C49.0202 21.5337 46.0179 18.9045 42.4945 18.9045C41.2623 18.9045 40.0474 19.229 38.9812 19.8431L39.0062 19.8864L38.9812 19.8431C38.4816 20.1309 37.8457 20.0007 37.4991 19.5397C36.0279 17.5821 33.7815 16.4593 31.3364 16.4593C29.631 16.4593 28.0148 17.0054 26.6631 18.0383L26.663 18.0384C25.2698 19.1057 24.274 20.6232 23.8601 22.3104L23.9087 22.3223L23.8601 22.3104C23.749 22.7634 23.3735 23.1032 22.9118 23.1688C20.5494 23.5037 18.4366 24.7339 16.9632 26.6324C15.7655 28.1735 15.1082 30.0116 15.0505 31.9634L15.0488 32.0221L15.107 32.0144C15.3891 31.9774 15.676 31.9577 15.9669 31.9577C16.7938 31.9577 17.6124 32.1132 18.3778 32.4122L18.4083 32.4241L18.4314 32.401C19.749 31.0838 21.5587 30.3197 23.4371 30.3197C26.4332 30.3197 29.0595 32.1874 30.0696 34.9465L30.0788 34.9716L30.1048 34.9779C33.1963 35.7277 35.5613 38.2716 36.1265 41.3694L36.134 41.4104H36.1757H40.5931C41.2235 41.4104 41.7345 41.9215 41.7345 42.5518C41.7345 43.1821 41.2235 43.6932 40.5931 43.6932H36.2498H36.2053L36.2002 43.7374C35.7331 47.7321 32.3285 50.8428 28.209 50.8428H10.2966C6.40103 50.8428 3.23164 47.6735 3.23164 43.7778C3.23164 40.1288 6.01226 37.1169 9.56604 36.7502L9.5994 36.7467L9.60887 36.7146C10.1055 35.0268 11.2554 33.6316 12.7485 32.7976L12.7754 32.7826L12.774 32.7518C12.7668 32.5825 12.7619 32.4133 12.7619 32.2445C12.7619 30.2385 13.2698 28.3216 14.2382 26.6162L14.2662 26.567L14.214 26.5453C10.7841 25.1193 8.43237 21.7122 8.43237 17.8979C8.43237 12.7379 12.6304 8.53975 17.7904 8.53975C20.1376 8.53975 22.3826 9.41289 24.1117 10.9983C25.3714 12.1533 26.2773 13.6129 26.7561 15.2205L26.7732 15.2779L26.8267 15.2507C28.2141 14.5452 29.7447 14.1764 31.3361 14.1764C34.1699 14.1764 36.7967 15.339 38.6841 17.3978L38.7083 17.4242L38.741 17.4098C39.9198 16.8921 41.1998 16.6215 42.4941 16.6215C46.8087 16.6215 50.5333 19.6007 51.5484 23.7023ZM10.48 39.0012L10.4799 39.0011L10.4604 39.0003C10.4066 38.9979 10.3515 38.9955 10.2964 38.9955C7.65945 38.9955 5.51421 41.1407 5.51421 43.7778C5.51421 46.4148 7.65945 48.56 10.2964 48.56H28.2087C31.3875 48.56 33.9736 45.9756 33.9736 42.7984C33.9736 39.9464 31.8474 37.4937 29.0275 37.093C28.5666 37.0276 28.1917 36.6887 28.0801 36.2367C27.5515 34.0969 25.642 32.6024 23.4369 32.6024C21.9205 32.6024 20.5256 33.2997 19.6106 34.515C19.2641 34.9753 18.6287 35.1052 18.1293 34.8177C17.4732 34.4399 16.7253 34.2404 15.9666 34.2404C13.7955 34.2404 11.9445 35.861 11.661 38.0101L11.7106 38.0166L11.661 38.0101C11.5837 38.5968 11.0727 39.0283 10.48 39.0012ZM21.8238 21.0437L21.8518 21.0377L21.8609 21.0105C22.4144 19.3461 23.4099 17.8432 24.7335 16.6728L24.7545 16.6542L24.7496 16.6266C24.1512 13.2778 21.2606 10.8227 17.7903 10.8227C13.889 10.8227 10.7151 13.9966 10.7151 17.898C10.7151 20.9774 12.7407 23.7046 15.621 24.6333L15.652 24.6433L15.6737 24.619C17.3021 22.7931 19.4414 21.5474 21.8238 21.0437Z" fill="black" stroke="#F4F4F4" stroke-width="0.1"/>
<path d="M45.8136 41.4104H45.8203C46.4507 41.4104 46.9616 41.9215 46.9616 42.5518C46.9616 43.182 46.4506 43.6932 45.8202 43.6932C45.1897 43.6932 44.6755 43.1819 44.6755 42.5518C44.6755 41.9213 45.1833 41.4104 45.8136 41.4104Z" fill="black" stroke="#F4F4F4" stroke-width="0.1"/>
</svg>
