<svg width="58" height="58" viewBox="0 0 58 58" fill="none" xmlns="http://www.w3.org/2000/svg">
<g clip-path="url(#clip0_516_916)">
<path d="M22.7183 7.37983L22.6183 7.37982L22.7183 7.37982C22.7183 5.47988 24.2644 3.93368 26.1645 3.93362L30.893 3.93356L30.893 3.83356L30.893 3.93356C32.7941 3.93346 34.334 5.46913 34.3392 7.36984L34.3392 7.37115L34.3935 10.7964L34.3948 10.876L34.4726 10.8926C35.7928 11.1755 36.8612 12.222 37.1341 13.5865L38.4307 20.0701L38.4358 20.0954L38.4525 20.1152C40.1746 22.1447 41.2129 24.6253 41.45 27.274L41.4582 27.3651L41.5496 27.3651H42.7852C43.3828 27.3651 43.8672 27.8495 43.8672 28.4471C43.8672 29.0447 43.3827 29.5291 42.7852 29.5291V29.6291L42.7852 29.5291L41.5496 29.5292L41.4581 29.5292L41.45 29.6203C41.2129 32.2689 40.1746 34.7495 38.4526 36.779L38.4358 36.7987L38.4308 36.824L37.134 43.3077C36.8622 44.6667 35.7997 45.7169 34.4731 46.0013L34.3953 46.018L34.3941 46.0976L34.3391 49.6898L34.3391 49.6911C34.334 51.5854 32.7914 53.128 30.8929 53.1279L26.1646 53.1279C24.2645 53.1279 22.7185 51.5819 22.7184 49.6818L22.7186 49.6655L22.7186 49.6652L22.7733 46.0939L22.7745 46.0126L22.6952 45.9948C21.3902 45.7016 20.3375 44.6609 20.0669 43.3077L19.9689 43.3274L20.0669 43.3077L18.7674 36.8105L18.7624 36.7852L18.7457 36.7656C16.8453 34.5176 15.6978 31.6142 15.6978 28.4472C15.6977 25.3613 16.7743 22.4419 18.7484 20.1153L18.7651 20.0956L18.7702 20.0703L20.0668 13.5867C20.3375 12.2339 21.39 11.1931 22.6944 10.8997L22.7738 10.8819L22.7725 10.8006L22.7185 7.39701L22.7185 7.39683L22.7183 7.37983ZM32.175 49.6656L32.175 49.6653L32.2284 46.1797L32.2299 46.0782H32.1284L25.0363 46.0782L24.9378 46.0782L24.9363 46.1767L24.8825 49.6879L24.8826 49.69C24.887 50.3932 25.4603 50.9638 26.1646 50.9639L30.8929 50.9638C31.6 50.9639 32.175 50.3888 32.1749 49.6818C32.1749 49.6818 32.1749 49.6818 32.1749 49.6818L32.175 49.6656ZM33.7546 43.9141L33.7546 43.8141L33.7547 43.9141C34.3639 43.914 34.8924 43.4807 35.0118 42.8835L35.7033 39.426L35.7495 39.1949L35.5512 39.3222C33.4953 40.6421 31.1026 41.35 28.6004 41.35C26.0419 41.35 23.6553 40.6016 21.6475 39.3122L21.4492 39.1848L21.4954 39.416L22.189 42.8835C22.3084 43.4807 22.8369 43.914 23.4461 43.9141L23.4461 43.8141L23.4461 43.9141L33.7546 43.9141ZM35.5512 17.5724L35.7495 17.6997L35.7033 17.4686L35.0118 14.0111C34.8923 13.4137 34.3639 12.9804 33.7546 12.9806L23.446 12.9805L23.446 13.0805L23.446 12.9805C22.8367 12.9806 22.3082 13.414 22.1888 14.0112L21.4973 17.4686L21.4511 17.6997L21.6494 17.5724C23.7054 16.2525 26.098 15.5446 28.6003 15.5446C31.1026 15.5446 33.4952 16.2525 35.5512 17.5724ZM32.1748 7.38078L32.1748 7.37988C32.1748 6.67125 31.6014 6.09786 30.8928 6.09773L30.8928 6.19773L30.8928 6.09773L26.1645 6.09768L26.1645 6.19768L26.1645 6.09768C25.4603 6.09774 24.887 6.66822 24.8825 7.37137L24.8825 7.3736L24.9356 10.7179L24.9371 10.8163L25.0355 10.8163L32.1276 10.8163L32.2292 10.8163L32.2276 10.7147L32.1749 7.39701L32.1749 7.3968L32.1748 7.38078ZM28.6004 39.1859C34.536 39.1859 39.3389 34.3825 39.339 28.4473C39.3389 22.5115 34.5358 17.7087 28.6004 17.7087C22.6647 17.7087 17.8618 22.512 17.8618 28.4473C17.8618 34.3686 22.679 39.1858 28.6004 39.1859Z" fill="black" stroke="#F4F4F4" stroke-width="0.2"/>
</g>
<path d="M46.6944 26.4092L54.8182 35.2544V39.1242L51.9168 43.5468L46.6944 46.8638H30.4468L29.8665 45.7581L30.4468 43.5468L39.1509 41.3355L27.5454 30.279L28.1257 28.0677L30.4468 27.5148L34.5087 31.3846L35.0889 30.279L36.8298 29.1733L39.1509 29.7261L39.7311 28.6205L41.4719 27.5148L43.793 28.0677V27.5148L45.5338 26.4092H46.6944Z" fill="#F4F4F4"/>
<path d="M53.2498 32.1692L47.7204 26.0927C46.6263 24.9986 44.8439 24.9972 43.7396 26.1016C43.3896 26.4515 43.1513 26.8706 43.0278 27.3178C41.9278 26.4751 40.3411 26.5589 39.3278 27.5722C38.9793 27.9222 38.741 28.3413 38.6146 28.7869C37.5146 27.9472 35.9278 28.0295 34.9161 29.0427C34.5734 29.3854 34.3381 29.7942 34.2102 30.2295L31.6043 27.6236C30.5102 26.5295 28.7278 26.528 27.6234 27.6324C26.5279 28.7265 26.5279 30.5089 27.6234 31.6045L37.6351 41.6162L31.6969 42.5485C30.0925 42.7779 28.8822 44.172 28.8822 45.7941C28.8822 47.0103 29.8719 48 31.0881 48H44.9542C47.1145 48 49.1454 47.1588 50.6733 45.6309L52.9865 43.3177C54.513 41.7926 55.3527 39.7632 55.3527 37.6059C55.3527 35.5912 54.6056 33.6603 53.2498 32.1692ZM51.9468 42.2779L49.6336 44.5911C48.3836 45.8411 46.7218 46.5293 44.9542 46.5293H31.088C30.6822 46.5293 30.3527 46.1999 30.3527 45.794C30.3527 44.8999 31.0203 44.1308 31.9159 44.0029L39.2909 42.844C39.5645 42.8013 39.7895 42.6087 39.8762 42.3455C39.9615 42.0837 39.8924 41.794 39.6968 41.5985L28.6631 30.5647C28.1411 30.0427 28.1411 29.1927 28.6705 28.6618C28.9322 28.4015 29.2749 28.2706 29.6175 28.2706C29.9602 28.2706 30.3028 28.4015 30.5646 28.6633L37.922 36.0206C38.2087 36.3074 38.6749 36.3074 38.9617 36.0206C39.1043 35.8765 39.1764 35.6883 39.1764 35.5C39.1764 35.3118 39.1044 35.1236 38.9603 34.9794L35.9558 31.975C35.4338 31.453 35.4338 30.6044 35.9647 30.0736C36.4853 29.553 37.3367 29.553 37.8573 30.0736L40.8632 33.0794C41.1499 33.3662 41.6161 33.3662 41.9029 33.0794C42.0455 32.9353 42.1176 32.7471 42.1176 32.5588C42.1176 32.3706 42.0456 32.1824 41.9014 32.0383L40.3676 30.5044C39.8456 29.9824 39.8456 29.1338 40.3764 28.603C40.897 28.0824 41.7485 28.0824 42.2691 28.603L43.8102 30.1441C43.8132 30.1455 43.8117 30.1455 43.8117 30.1455L43.8131 30.147L43.8146 30.1484L43.816 30.1499H43.8175L43.8189 30.1513C44.1071 30.4249 44.563 30.419 44.8439 30.1367C45.1306 29.8499 45.1306 29.3837 44.8439 29.0969L44.7807 29.0337C44.5277 28.7808 44.388 28.444 44.388 28.0866C44.388 27.7293 44.5262 27.394 44.788 27.1323C45.3116 26.6117 46.1586 26.6131 46.6572 27.1072L52.163 33.1587C53.2703 34.3779 53.8821 35.9573 53.8821 37.6059C53.8821 39.3706 53.1953 41.0294 51.9468 42.2779Z" fill="black" stroke="black" stroke-width="0.4"/>
<path d="M35.6411 26.9015C34.5706 24.5324 32.2059 23 29.6176 23C25.9691 23 23 25.9691 23 29.6176C23 32.2059 24.5323 34.5706 26.9014 35.6426C26.9999 35.6867 27.1029 35.7074 27.2044 35.7074C27.4838 35.7074 27.7515 35.5456 27.875 35.275C28.0412 34.9044 27.8764 34.4691 27.5074 34.3015C25.6633 33.4676 24.4706 31.6294 24.4706 29.6176C24.4706 26.7794 26.7794 24.4706 29.6177 24.4706C31.6295 24.4706 33.4677 25.6632 34.3015 27.5073C34.4677 27.8779 34.9045 28.0441 35.2736 27.8749C35.6441 27.7073 35.8088 27.2721 35.6411 26.9015Z" fill="black" stroke="black" stroke-width="0.4"/>
<defs>
<clipPath id="clip0_516_916">
<rect width="40.347" height="40.347" fill="white" transform="translate(0 28.5298) rotate(-45)"/>
</clipPath>
</defs>
</svg>
