<svg width="64" height="19" viewBox="0 0 64 19" fill="none" xmlns="http://www.w3.org/2000/svg">
<path d="M0.102438 5.568L4.13444 4.512V18H7.47044V0.912L0.102438 2.472V5.568ZM14.4835 9.6C14.4835 8.752 14.5635 7.984 14.7235 7.296C14.8835 6.592 15.1155 5.992 15.4195 5.496C15.7235 4.984 16.0835 4.592 16.4995 4.32C16.9155 4.048 17.3795 3.912 17.8915 3.912C18.4195 3.912 18.8915 4.048 19.3075 4.32C19.7235 4.592 20.0835 4.984 20.3875 5.496C20.6915 5.992 20.9235 6.592 21.0835 7.296C21.2435 7.984 21.3235 8.752 21.3235 9.6C21.3235 10.448 21.2435 11.224 21.0835 11.928C20.9235 12.616 20.6915 13.216 20.3875 13.728C20.0835 14.224 19.7235 14.608 19.3075 14.88C18.8915 15.152 18.4195 15.288 17.8915 15.288C17.3795 15.288 16.9155 15.152 16.4995 14.88C16.0835 14.608 15.7235 14.224 15.4195 13.728C15.1155 13.216 14.8835 12.616 14.7235 11.928C14.5635 11.224 14.4835 10.448 14.4835 9.6ZM11.1475 9.6C11.1475 11.376 11.4275 12.912 11.9875 14.208C12.5635 15.504 13.3555 16.512 14.3635 17.232C15.3875 17.936 16.5635 18.288 17.8915 18.288C19.2675 18.288 20.4595 17.936 21.4675 17.232C22.4755 16.512 23.2595 15.504 23.8195 14.208C24.3795 12.912 24.6595 11.376 24.6595 9.6C24.6595 7.824 24.3795 6.288 23.8195 4.992C23.2595 3.696 22.4755 2.696 21.4675 1.992C20.4595 1.272 19.2675 0.912 17.8915 0.912C16.5635 0.912 15.3875 1.272 14.3635 1.992C13.3555 2.696 12.5635 3.696 11.9875 4.992C11.4275 6.288 11.1475 7.824 11.1475 9.6ZM29.9054 9.6C29.9054 8.752 29.9854 7.984 30.1454 7.296C30.3054 6.592 30.5374 5.992 30.8414 5.496C31.1454 4.984 31.5054 4.592 31.9214 4.32C32.3374 4.048 32.8014 3.912 33.3134 3.912C33.8414 3.912 34.3134 4.048 34.7294 4.32C35.1454 4.592 35.5054 4.984 35.8094 5.496C36.1134 5.992 36.3454 6.592 36.5054 7.296C36.6654 7.984 36.7454 8.752 36.7454 9.6C36.7454 10.448 36.6654 11.224 36.5054 11.928C36.3454 12.616 36.1134 13.216 35.8094 13.728C35.5054 14.224 35.1454 14.608 34.7294 14.88C34.3134 15.152 33.8414 15.288 33.3134 15.288C32.8014 15.288 32.3374 15.152 31.9214 14.88C31.5054 14.608 31.1454 14.224 30.8414 13.728C30.5374 13.216 30.3054 12.616 30.1454 11.928C29.9854 11.224 29.9054 10.448 29.9054 9.6ZM26.5694 9.6C26.5694 11.376 26.8494 12.912 27.4094 14.208C27.9854 15.504 28.7774 16.512 29.7854 17.232C30.8094 17.936 31.9854 18.288 33.3134 18.288C34.6894 18.288 35.8814 17.936 36.8894 17.232C37.8974 16.512 38.6814 15.504 39.2414 14.208C39.8014 12.912 40.0814 11.376 40.0814 9.6C40.0814 7.824 39.8014 6.288 39.2414 4.992C38.6814 3.696 37.8974 2.696 36.8894 1.992C35.8814 1.272 34.6894 0.912 33.3134 0.912C31.9854 0.912 30.8094 1.272 29.7854 1.992C28.7774 2.696 27.9854 3.696 27.4094 4.992C26.8494 6.288 26.5694 7.824 26.5694 9.6ZM60.2986 18H63.4906L60.2986 6.12L58.7146 10.056L60.2986 18ZM55.1626 15.312L55.8826 18.744L60.5386 10.68L60.2986 6.12L55.1626 15.312ZM55.8826 18.744L56.6026 15.312L51.5386 6.12L51.2986 10.68L55.8826 18.744ZM48.3466 18H51.5386L53.1226 10.056L51.5386 6.12L48.3466 18Z" fill="black"/>
</svg>
