<svg width="58" height="58" viewBox="0 0 58 58" fill="none" xmlns="http://www.w3.org/2000/svg">
<g clip-path="url(#clip0_108_2484)">
<path d="M30.893 3.83356L26.1645 3.83362C24.2092 3.83368 22.6183 5.42465 22.6183 7.37982C22.6183 7.38606 22.6184 7.39236 22.6185 7.3986L22.6725 10.8021C21.3303 11.104 20.2473 12.1747 19.9688 13.5671L18.6721 20.0506C16.6827 22.3953 15.5977 25.3377 15.5978 28.4472C15.5978 31.6388 16.7543 34.5649 18.6694 36.8301L19.9689 43.3274C20.2474 44.7201 21.3306 45.7907 22.6733 46.0924L22.6186 49.6637C22.6185 49.6697 22.6184 49.6757 22.6184 49.6818C22.6185 51.6371 24.2093 53.2279 26.1646 53.2279L30.8929 53.2279C32.8466 53.228 34.4338 51.6407 34.4391 49.6914L34.4941 46.0991C35.859 45.8064 36.9523 44.726 37.2321 43.3274L38.5288 36.8437C40.2642 34.7984 41.3106 32.2984 41.5496 29.6292L42.7852 29.6291C43.4379 29.6291 43.9672 29.0999 43.9672 28.4471C43.9672 27.7943 43.438 27.2651 42.7852 27.2651H41.5496C41.3106 24.5958 40.2642 22.0957 38.5288 20.0505L37.2321 13.5669C36.9512 12.1624 35.8518 11.0859 34.4935 10.7948L34.4392 7.36957C34.4338 5.41373 32.8492 3.83345 30.893 3.83356ZM32.0751 49.6638C32.0749 49.6698 32.0749 49.6758 32.0749 49.6818C32.075 50.3336 31.5448 50.8639 30.8929 50.8638L26.1646 50.8639C25.5154 50.8638 24.9867 50.3377 24.9826 49.6894L25.0363 46.1782H32.1284L32.0751 49.6638ZM34.9137 42.8639C34.8037 43.4143 34.3162 43.814 33.7546 43.8141C33.4427 43.8141 23.8372 43.8141 23.4461 43.8141C22.8846 43.814 22.3971 43.4144 22.287 42.8639L21.5934 39.3963C23.6168 40.6958 26.0221 41.45 28.6004 41.45C31.1217 41.45 33.5331 40.7366 35.6053 39.4064L34.9137 42.8639ZM39.239 28.4473C39.239 34.3273 34.4808 39.0859 28.6004 39.0859C22.7342 39.0858 17.9618 34.3133 17.9618 28.4473C17.9618 22.5673 22.7199 17.8087 28.6004 17.8087C34.4805 17.8087 39.2389 22.5668 39.239 28.4473ZM34.9137 14.0307L35.6052 17.4882C33.5331 16.158 31.1217 15.4446 28.6003 15.4446C26.0789 15.4446 23.6675 16.158 21.5954 17.4882L22.2869 14.0308C22.3969 13.4804 22.8844 13.0806 23.446 13.0805C23.7865 13.0805 33.2536 13.0805 33.7546 13.0806C34.3162 13.0804 34.8035 13.4801 34.9137 14.0307ZM32.0748 7.37987C32.0748 7.38617 32.0748 7.39236 32.075 7.3986L32.1276 10.7163C31.3759 10.7163 25.7873 10.7164 25.0356 10.7163L24.9825 7.37202C24.9867 6.7238 25.5153 6.19774 26.1645 6.19768L30.8928 6.19773C31.5462 6.19785 32.0748 6.72648 32.0748 7.37987Z" fill="black" stroke="#F4F4F4" stroke-width="0.2"/>
<path d="M31 34L35 30" stroke="black" stroke-width="2" stroke-linecap="round" stroke-linejoin="round"/>
<path d="M29 32L33 28" stroke="black" stroke-width="2" stroke-linecap="round" stroke-linejoin="round"/>
</g>
<defs>
<clipPath id="clip0_108_2484">
<rect width="40.347" height="40.347" fill="white" transform="translate(0 28.5298) rotate(-45)"/>
</clipPath>
</defs>
</svg>
