<svg width="71" height="70" viewBox="0 0 71 70" fill="none" xmlns="http://www.w3.org/2000/svg">
<circle cx="35.1094" cy="35" r="35" fill="#878787" fill-opacity="0.09"/>
<g clip-path="url(#clip0_513_908)">
<path d="M49.8614 28.9116C49.7922 27.3412 49.5382 26.2615 49.1745 25.326C48.7992 24.333 48.2218 23.4439 47.4653 22.7049C46.7263 21.9543 45.8313 21.371 44.8498 21.0016C43.9089 20.6378 42.8349 20.3839 41.2645 20.3146C39.6824 20.2395 39.1801 20.2222 35.1674 20.2222C31.1547 20.2222 30.6524 20.2395 29.0761 20.3088C27.5057 20.378 26.4261 20.6322 25.4908 20.9958C24.4975 21.371 23.6085 21.9484 22.8694 22.7049C22.1188 23.4439 21.5358 24.3389 21.1662 25.3204C20.8024 26.2615 20.5484 27.3353 20.4792 28.9057C20.4041 30.4878 20.3867 30.9901 20.3867 35.0028C20.3867 39.0156 20.4041 39.5178 20.4733 41.0941C20.5426 42.6645 20.7967 43.7441 21.1605 44.6796C21.5358 45.6727 22.1188 46.5617 22.8694 47.3008C23.6085 48.0514 24.5034 48.6346 25.4849 49.004C26.4261 49.3678 27.4999 49.6218 29.0705 49.691C30.6465 49.7605 31.149 49.7776 35.1617 49.7776C39.1745 49.7776 39.6767 49.7605 41.253 49.691C42.8234 49.6218 43.903 49.3678 44.8383 49.004C46.8246 48.2361 48.395 46.6657 49.1629 44.6796C49.5265 43.7385 49.7807 42.6645 49.8499 41.0941C49.9192 39.5178 49.9365 39.0156 49.9365 35.0028C49.9365 30.9901 49.9307 30.4878 49.8614 28.9116ZM47.1999 40.9786C47.1363 42.422 46.8938 43.2015 46.6918 43.7211C46.1951 45.0087 45.1732 46.0306 43.8857 46.5272C43.366 46.7293 42.5809 46.9718 41.1432 47.0351C39.5843 47.1046 39.1167 47.1217 35.1732 47.1217C31.2298 47.1217 30.7564 47.1046 29.2031 47.0351C27.7597 46.9718 26.9802 46.7293 26.4606 46.5272C25.8199 46.2904 25.2366 45.9151 24.7632 45.4244C24.2725 44.9451 23.8972 44.3677 23.6604 43.727C23.4583 43.2073 23.2158 42.422 23.1525 40.9845C23.083 39.4256 23.0658 38.9578 23.0658 35.0143C23.0658 31.0709 23.083 30.5975 23.1525 29.0444C23.2158 27.601 23.4583 26.8215 23.6604 26.3019C23.8972 25.6609 24.2725 25.0779 24.7691 24.6043C25.2481 24.1135 25.8255 23.7383 26.4665 23.5017C26.9861 23.2996 27.7714 23.0571 29.209 22.9935C30.7679 22.9243 31.2356 22.9069 35.1789 22.9069C39.1282 22.9069 39.5958 22.9243 41.149 22.9935C42.5924 23.0571 43.3719 23.2996 43.8915 23.5017C44.5323 23.7383 45.1155 24.1135 45.5889 24.6043C46.0797 25.0836 46.455 25.6609 46.6918 26.3019C46.8938 26.8215 47.1363 27.6066 47.1999 29.0444C47.2691 30.6033 47.2865 31.0709 47.2865 35.0143C47.2865 38.9578 47.2691 39.4197 47.1999 40.9786Z" fill="black"/>
<path d="M35.1666 27.4106C30.9751 27.4106 27.5742 30.8113 27.5742 35.0031C27.5742 39.1949 30.9751 42.5955 35.1666 42.5955C39.3584 42.5955 42.759 39.1949 42.759 35.0031C42.759 30.8113 39.3584 27.4106 35.1666 27.4106ZM35.1666 39.9281C32.4474 39.9281 30.2416 37.7226 30.2416 35.0031C30.2416 32.2836 32.4474 30.078 35.1666 30.078C37.8861 30.078 40.0916 32.2836 40.0916 35.0031C40.0916 37.7226 37.8861 39.9281 35.1666 39.9281Z" fill="black"/>
<path d="M44.8323 27.1104C44.8323 28.0892 44.0386 28.8829 43.0596 28.8829C42.0808 28.8829 41.2871 28.0892 41.2871 27.1104C41.2871 26.1313 42.0808 25.3379 43.0596 25.3379C44.0386 25.3379 44.8323 26.1313 44.8323 27.1104Z" fill="black"/>
</g>
<defs>
<clipPath id="clip0_513_908">
<rect width="29.5556" height="29.5556" fill="white" transform="translate(20.334 20.2222)"/>
</clipPath>
</defs>
</svg>
