<svg width="46" height="44" viewBox="0 0 46 44" fill="none" xmlns="http://www.w3.org/2000/svg"><g clip-path="url(#clip0_1_313)" fill="#A5A5A5" fill-opacity=".3"><path d="M23.06 25.07a3.421 3.421 0 100-6.842 3.421 3.421 0 000 6.843z"/><path d="M27.434 13.004h-8.75a4.273 4.273 0 00-4.273 4.273v8.748a4.273 4.273 0 004.273 4.273h8.75a4.273 4.273 0 004.273-4.273v-8.751a4.273 4.273 0 00-4.273-4.27zM23.06 27.25a5.6 5.6 0 11-.006-11.2 5.6 5.6 0 01.006 11.2zm5.632-9.817a1.384 1.384 0 11-.006-2.767 1.384 1.384 0 01.006 2.767z"/><path d="M23.06 0a21.65 21.65 0 100 43.298A21.65 21.65 0 0023.06 0zm10.824 26.025a6.455 6.455 0 01-6.45 6.45h-8.75a6.457 6.457 0 01-6.45-6.45v-8.751a6.458 6.458 0 016.45-6.45h8.75a6.458 6.458 0 016.45 6.45v8.751z"/></g><defs><clipPath id="clip0_1_313"><path fill="#fff" transform="translate(.207)" d="M0 0h45.705v43.299H0z"/></clipPath></defs></svg>