<svg width="24" height="18" viewBox="0 0 24 18" fill="none" xmlns="http://www.w3.org/2000/svg">
<path d="M21.1439 18C21.6648 18 22.1162 17.836 22.5 17.5122L15.9338 11.2517C15.7762 11.3592 15.6235 11.4638 15.4793 11.5633C14.9879 11.9084 14.5891 12.1778 14.2828 12.3708C13.9766 12.5642 13.5692 12.7614 13.0607 12.9627C12.5518 13.1643 12.0777 13.2647 11.6379 13.2647H11.625H11.6121C11.1723 13.2647 10.6982 13.1643 10.1893 12.9627C9.68049 12.7614 9.27309 12.5642 8.96718 12.3708C8.66098 12.1778 8.26237 11.9085 7.77073 11.5633C7.63372 11.4675 7.48178 11.3624 7.31751 11.25L0.75 17.5122C1.13371 17.836 1.58542 18 2.10635 18H21.1439Z" fill="#F03241"/>
<path d="M1.35437 7.09826C0.844984 6.77856 0.393265 6.41242 0 6V15.75L6 10.1018C4.79966 9.31293 3.25308 8.3129 1.35437 7.09826Z" fill="#F03241"/>
<path d="M21.9087 7.09823C20.0816 8.26184 18.5288 9.26356 17.25 10.104L23.25 15.75V6C22.8653 6.40412 22.4183 6.77 21.9087 7.09823Z" fill="#F03241"/>
<path d="M21.1739 0H2.07578C1.40951 0 0.897262 0.217729 0.538416 0.652737C0.179275 1.08795 0 1.63223 0 2.28497C0 2.81221 0.237908 3.3835 0.713512 3.99898C1.18912 4.61422 1.6952 5.09747 2.2315 5.44898C2.52551 5.65 3.41214 6.24649 4.89138 7.23824C5.68991 7.77373 6.38434 8.24048 6.98109 8.64326C7.48975 8.98623 7.92842 9.28325 8.2906 9.52974C8.33218 9.55797 8.39756 9.60323 8.48435 9.66328C8.57785 9.72827 8.69617 9.81074 8.84214 9.91275C9.12323 10.1095 9.35675 10.2685 9.54274 10.39C9.72847 10.5115 9.9535 10.6473 10.2175 10.798C10.4813 10.9485 10.7301 11.0617 10.9636 11.137C11.1972 11.2123 11.4134 11.25 11.6123 11.25H11.6252H11.6381C11.837 11.25 12.0532 11.2123 12.2868 11.137C12.5203 11.0617 12.7689 10.9488 13.0329 10.798C13.2966 10.6473 13.5214 10.5112 13.7077 10.39C13.8937 10.2685 14.1272 10.1095 14.4083 9.91275C14.554 9.81074 14.6723 9.72823 14.7658 9.66348C14.8526 9.60319 14.918 9.55821 14.9598 9.52974C15.242 9.33975 15.6817 9.04395 16.2728 8.64673C17.3484 7.92349 18.9326 6.85899 21.0319 5.44898C21.6632 5.02222 22.1907 4.50723 22.6147 3.90474C23.0378 3.30225 23.25 2.67026 23.25 2.00899C23.25 1.4565 23.0443 0.983742 22.6338 0.589992C22.2228 0.196732 21.7361 0 21.1739 0Z" fill="#F03241"/>
</svg>
