<svg width="71" height="70" viewBox="0 0 71 70" fill="none" xmlns="http://www.w3.org/2000/svg">
<circle cx="35.2227" cy="35" r="35" fill="#878787" fill-opacity="0.09"/>
<path d="M35.963 20.2222C27.8626 20.2222 23.5547 25.4131 23.5547 31.0732C23.5547 33.6983 25.0214 36.9717 27.3694 38.0099C27.7259 38.1706 27.9199 38.1022 27.9993 37.7716C28.0695 37.5203 28.378 36.3103 28.5276 35.7395C28.5738 35.5566 28.5498 35.3978 28.402 35.226C27.6225 34.3245 27.0036 32.6822 27.0036 31.1416C27.0036 27.1939 30.1422 23.3607 35.4827 23.3607C40.101 23.3607 43.3319 26.3608 43.3319 30.6521C43.3319 35.5012 40.766 38.8559 37.4316 38.8559C35.5862 38.8559 34.2118 37.4076 34.6478 35.6158C35.1742 33.4821 36.2069 31.1878 36.2069 29.649C36.2069 28.269 35.4273 27.1274 33.8349 27.1274C31.9562 27.1274 30.4322 28.9876 30.4322 31.4852C30.4322 33.072 30.9938 34.1435 30.9938 34.1435C30.9938 34.1435 29.1354 41.6509 28.7899 43.053C28.2062 45.4268 28.8694 49.271 28.9266 49.6017C28.9617 49.7846 29.1668 49.8419 29.2813 49.6922C29.4642 49.4521 31.7105 46.247 32.3405 43.9305C32.5695 43.0863 33.5098 39.6632 33.5098 39.6632C34.1287 40.7808 35.915 41.7174 37.8177 41.7174C43.4779 41.7174 47.5678 36.7426 47.5678 30.5689C47.5475 24.6502 42.4822 20.2222 35.963 20.2222Z" fill="black"/>
</svg>
