<svg width="40" height="40" viewBox="0 0 40 40" fill="none" xmlns="http://www.w3.org/2000/svg"><path d="M26.598 19.218l-8.306-6.038a1.001 1.001 0 00-1.59.808v12.071a.999.999 0 001.59.807l8.306-6.032a.994.994 0 000-1.616z" fill="#fff"/><path d="M20 .002C8.954.002 0 8.955 0 20.003c0 11.044 8.953 19.994 20 19.994 11.046 0 20-8.951 20-19.994.001-11.048-8.954-20-20-20zm0 36.658c-9.2 0-16.659-7.455-16.659-16.657 0-9.198 7.46-16.662 16.66-16.662 9.199 0 16.657 7.463 16.657 16.662C36.659 29.205 29.2 36.66 20 36.66z" fill="#fff"/></svg>