<svg width="22" height="22" viewBox="0 0 22 22" fill="none" xmlns="http://www.w3.org/2000/svg"><path d="M21.618 19.774l-4.23-4.228a9.606 9.606 0 001.986-5.859 9.622 9.622 0 00-2.838-6.85A9.626 9.626 0 009.684 0a9.627 9.627 0 00-6.85 2.837c-3.778 3.778-3.778 9.923 0 13.7a9.626 9.626 0 006.85 2.837 9.611 9.611 0 005.861-1.984l4.229 4.228a1.3 1.3 0 00.922.382 1.303 1.303 0 00.922-2.226zm-16.94-5.08a7.087 7.087 0 010-10.013 7.037 7.037 0 015.006-2.074c1.892 0 3.67.737 5.008 2.074a7.033 7.033 0 012.074 5.006 7.033 7.033 0 01-2.074 5.006 7.035 7.035 0 01-5.008 2.074 7.036 7.036 0 01-5.007-2.074z" fill="#000"/></svg>