<svg width="19" height="18" viewBox="0 0 19 18" fill="none" xmlns="http://www.w3.org/2000/svg">
<path d="M18.7981 7.4893L14.6346 11.5243L15.6179 17.2232C15.6606 17.4724 15.5577 17.7242 15.3518 17.8731C15.2355 17.9575 15.0972 18 14.9588 18C14.8525 18 14.7456 17.9747 14.648 17.9236L9.5 15.2329L4.35265 17.9229C4.12807 18.0412 3.85469 18.0219 3.64883 17.8724C3.44296 17.7236 3.34003 17.4717 3.3828 17.2225L4.36602 11.5236L0.201889 7.4893C0.0200838 7.31254 -0.0460878 7.04806 0.0327833 6.80817C0.111655 6.56828 0.320864 6.39218 0.572851 6.35563L6.32711 5.52498L8.90044 0.3404C9.1257 -0.113467 9.8743 -0.113467 10.0996 0.3404L12.6729 5.52498L18.4271 6.35563C18.6791 6.39218 18.8883 6.56761 18.9672 6.80817C19.0461 7.04872 18.9799 7.31187 18.7981 7.4893Z" fill="#F03241"/>
</svg>
