<svg width="29" height="29" viewBox="0 0 29 29" fill="none" xmlns="http://www.w3.org/2000/svg">
<path d="M14.5 29C22.5081 29 29 22.5081 29 14.5C29 6.49187 22.5081 0 14.5 0C6.49187 0 0 6.49187 0 14.5C0 22.5081 6.49187 29 14.5 29Z" fill="#1C8ADB"/>
<path d="M22.3989 7.49715L22.099 7.6059L5.82275 13.4702C5.70741 13.5058 5.60716 13.5788 5.53772 13.6775C5.46828 13.7763 5.43357 13.8953 5.43904 14.0159C5.4445 14.1365 5.48983 14.2519 5.56792 14.344C5.64601 14.436 5.75244 14.4996 5.87053 14.5247L10.0838 15.6781L10.8697 17.9849L11.6557 20.2917C11.7009 20.4048 11.7729 20.5052 11.8657 20.5841C11.9584 20.663 12.069 20.7181 12.1878 20.7445C12.3067 20.771 12.4302 20.7681 12.5477 20.736C12.6651 20.7039 12.773 20.6436 12.8618 20.5603L15.0385 18.504L19.3127 21.4023C19.835 21.7582 20.5798 21.4946 20.7133 20.908L23.5441 8.40011C23.6825 7.78056 23.03 7.27141 22.3989 7.49715ZM20.3211 10.2736L12.9673 16.2845L12.6213 16.5679C12.5453 16.6282 12.4956 16.7156 12.4829 16.8117L12.4054 17.4511L12.1929 19.2471C12.1946 19.2689 12.1876 19.2906 12.1734 19.3073C12.1592 19.324 12.1389 19.3343 12.1171 19.3361C12.0952 19.3378 12.0736 19.3308 12.0569 19.3166C12.0402 19.3024 12.0298 19.2821 12.0281 19.2603L11.43 17.4659L10.8121 15.6287C10.7859 15.5461 10.7894 15.457 10.8219 15.3767C10.8544 15.2964 10.9138 15.2299 10.99 15.1887L18.6421 10.8025L20.0822 9.97863C20.2914 9.8567 20.5056 10.122 20.3211 10.2736Z" fill="white"/>
</svg>
