<svg width="71" height="70" viewBox="0 0 71 70" fill="none" xmlns="http://www.w3.org/2000/svg">
<circle cx="35.5547" cy="35" r="35" fill="#878787" fill-opacity="0.09"/>
<path d="M28.6733 49.7938C41.8815 49.7938 49.1045 38.8512 49.1045 29.3626C49.1045 29.0518 49.0981 28.7423 49.0842 28.4345C50.4862 27.4208 51.7047 26.1558 52.6662 24.716C51.3796 25.2881 49.9947 25.6727 48.5425 25.8468C50.0249 24.9574 51.1632 23.5512 51.7 21.8748C50.3126 22.6974 48.776 23.295 47.1403 23.6177C45.8299 22.222 43.9641 21.3491 41.8984 21.3491C37.9331 21.3491 34.7171 24.5649 34.7171 28.5289C34.7171 29.0927 34.7803 29.6406 34.9034 30.1663C28.9353 29.866 23.6429 27.0088 20.1016 22.6638C19.4851 23.7248 19.1294 24.9576 19.1294 26.2731C19.1294 28.7641 20.3972 30.9638 22.3248 32.2502C21.1467 32.214 20.0402 31.8906 19.0727 31.3523C19.0716 31.3825 19.0716 31.4118 19.0716 31.4439C19.0716 34.9217 21.5468 37.8253 24.833 38.4833C24.2294 38.6475 23.5943 38.7359 22.9393 38.7359C22.4774 38.7359 22.0271 38.6905 21.5896 38.6064C22.5038 41.4595 25.1549 43.5357 28.2978 43.5939C25.84 45.5203 22.7439 46.6678 19.379 46.6678C18.8002 46.6678 18.2281 46.6346 17.666 46.5682C20.8441 48.6053 24.6178 49.7941 28.6735 49.7941" fill="black"/>
</svg>
