<svg width="29" height="29" viewBox="0 0 29 29" fill="none" xmlns="http://www.w3.org/2000/svg">
<path d="M14.5 29C22.5081 29 29 22.5081 29 14.5C29 6.49187 22.5081 0 14.5 0C6.49187 0 0 6.49187 0 14.5C0 22.5081 6.49187 29 14.5 29Z" fill="#6F3FAA"/>
<path d="M22.8756 9.79573V9.77431C22.6811 8.9867 22.1736 8.17272 21.5079 7.48727C20.7302 6.68318 19.7399 6.0521 18.7941 5.84778H18.7744C15.9539 5.30733 13.0564 5.30733 10.2358 5.84778H10.2161C8.4596 6.22841 6.55318 8.06397 6.12806 9.77431V9.79573C5.60575 12.167 5.60575 14.6234 6.12806 16.9947V17.0144C6.43125 18.2337 7.48579 19.5157 8.70181 20.2901C9.09894 20.5489 9.53123 20.7492 9.98539 20.8849V22.793C9.98603 22.9455 10.0321 23.0943 10.1176 23.2206C10.2032 23.3468 10.3244 23.4447 10.4658 23.5018C10.6072 23.5589 10.7624 23.5726 10.9116 23.5411C11.0608 23.5097 11.1972 23.4345 11.3036 23.3252L13.238 21.315C13.6565 21.3381 14.0783 21.3512 14.4969 21.3512C15.9295 21.3508 17.359 21.2151 18.7661 20.9459H18.7859C20.5374 20.5636 22.4455 18.7281 22.8673 17.0177V16.998C23.3928 14.6263 23.3956 12.1686 22.8756 9.79573ZM21.3448 16.642C21.0614 17.7576 19.6147 19.1466 18.4629 19.402C16.967 19.6886 15.4445 19.8129 13.9218 19.7727C13.907 19.7718 13.8922 19.7743 13.8784 19.78C13.8647 19.7857 13.8525 19.7945 13.8427 19.8057L12.4306 21.2557L10.9279 22.7963C10.9039 22.8217 10.8727 22.8393 10.8386 22.8468C10.8044 22.8544 10.7688 22.8515 10.7363 22.8385C10.7038 22.8255 10.676 22.8031 10.6564 22.7741C10.6368 22.7452 10.6263 22.711 10.6264 22.676V19.5124C10.6264 19.4869 10.6175 19.4623 10.6013 19.4427C10.585 19.4232 10.5624 19.4099 10.5374 19.4053C10.2971 19.3482 10.0655 19.2596 9.84863 19.1416C8.86988 18.6193 7.88289 17.5483 7.65551 16.642C7.18452 14.4987 7.18452 12.2786 7.65551 10.1352C7.93727 9.0246 9.39221 7.63886 10.5357 7.38181C13.1544 6.88076 15.8443 6.88076 18.4629 7.38181C19.0973 7.52352 19.8223 8.0063 20.3891 8.59948C20.8554 9.08227 21.213 9.6392 21.3448 10.1401C21.8151 12.2819 21.8151 14.5002 21.3448 16.642Z" fill="white"/>
<path d="M18.5041 16.8068C18.2901 17.2953 17.922 17.7004 17.4562 17.9602C17.31 18.0222 17.1583 18.0702 17.0031 18.1036C16.8268 18.0508 16.6587 18.0146 16.5087 17.9503C15.2597 17.4643 14.0969 16.7805 13.065 15.9253C12.7585 15.6639 12.4705 15.3814 12.2032 15.08C11.5432 14.3199 10.9889 13.4741 10.5555 12.5655C10.3446 12.1355 10.1666 11.6906 9.98538 11.2474C9.82061 10.8437 10.0645 10.4235 10.3149 10.122C10.5601 9.84232 10.8616 9.61771 11.1998 9.46288C11.3187 9.40308 11.4549 9.38682 11.5846 9.41691C11.7143 9.44701 11.8294 9.52157 11.9099 9.62765C12.3309 10.1006 12.702 10.6158 13.0172 11.165C13.1165 11.3247 13.1505 11.5164 13.1122 11.7005C13.0738 11.8846 12.966 12.0469 12.8112 12.1536C12.7289 12.2113 12.6465 12.2772 12.5756 12.3415C12.5058 12.3932 12.4455 12.4568 12.3977 12.5293C12.3563 12.5972 12.3313 12.6737 12.3244 12.7529C12.3176 12.832 12.3291 12.9117 12.3581 12.9857C12.6761 13.8607 13.1589 14.5906 13.8806 15.103C14.1249 15.2757 14.388 15.42 14.6649 15.5331C14.8458 15.6315 15.049 15.6814 15.2548 15.6781C15.614 15.6353 15.7327 15.2382 15.9831 15.0338C16.0981 14.9397 16.2403 14.8852 16.3888 14.8784C16.5372 14.8715 16.6839 14.9128 16.807 14.9959C17.0739 15.1607 17.331 15.3469 17.588 15.5282C17.8422 15.7017 18.087 15.8887 18.3212 16.0884C18.4308 16.168 18.509 16.2833 18.5424 16.4146C18.5759 16.5458 18.5623 16.6845 18.5041 16.8068Z" fill="white"/>
<path d="M14.9726 8.91089H14.7617C14.8293 8.9076 14.9001 8.91089 14.9726 8.91089Z" fill="white"/>
<path d="M18.6197 13.8491C18.4549 13.8491 18.3742 13.7091 18.3627 13.5558C18.3412 13.2543 18.3248 12.9511 18.2836 12.6512C18.2124 12.1453 18.0361 11.6598 17.7662 11.2259C17.4887 10.774 17.1195 10.3853 16.6824 10.085C16.2453 9.78473 15.7501 9.57951 15.2287 9.48265C14.9914 9.43981 14.7492 9.42992 14.5103 9.4052C14.3587 9.38873 14.1593 9.37884 14.1263 9.191C14.1214 9.15452 14.1243 9.1174 14.1349 9.08214C14.1455 9.04688 14.1634 9.01427 14.1876 8.98651C14.2118 8.95875 14.2416 8.93646 14.2751 8.92115C14.3086 8.90583 14.3449 8.89784 14.3817 8.8977C14.4213 8.89543 14.4609 8.89543 14.5004 8.8977C15.2206 8.9038 15.9282 9.08743 16.5605 9.43232C17.1928 9.77722 17.7303 10.2727 18.1254 10.875C18.4373 11.3604 18.649 11.9032 18.7482 12.4716C18.8108 12.8275 18.8339 13.1933 18.8619 13.5558C18.8675 13.5914 18.8655 13.6277 18.8561 13.6624C18.8466 13.6971 18.8298 13.7294 18.8069 13.7571C18.784 13.7848 18.7555 13.8074 18.7232 13.8232C18.6909 13.8391 18.6556 13.8479 18.6197 13.8491Z" fill="white"/>
<path d="M17.7277 13.0797C17.7267 13.1286 17.7201 13.1773 17.7079 13.2247C17.6935 13.2723 17.6648 13.3144 17.6256 13.3451C17.5865 13.3758 17.5389 13.3938 17.4892 13.3965C17.4395 13.3992 17.3902 13.3865 17.3479 13.3602C17.3057 13.3339 17.2726 13.2952 17.2531 13.2494C17.235 13.1828 17.2267 13.114 17.2284 13.0451C17.2322 12.6765 17.1593 12.3112 17.0142 11.9724C16.9812 11.8999 16.945 11.8257 16.9038 11.7549C16.6679 11.3484 16.3179 11.02 15.897 10.8107C15.6432 10.6909 15.3735 10.6077 15.0962 10.5636C14.9743 10.5438 14.8524 10.5323 14.7304 10.5158C14.6987 10.5142 14.6676 10.5061 14.6391 10.492C14.6107 10.478 14.5854 10.4582 14.5648 10.4339C14.5443 10.4097 14.5289 10.3815 14.5197 10.3511C14.5105 10.3207 14.5077 10.2887 14.5113 10.2571C14.5113 10.2248 14.5182 10.1929 14.5314 10.1634C14.5446 10.134 14.5639 10.1076 14.588 10.0862C14.6122 10.0647 14.6405 10.0486 14.6713 10.0388C14.7021 10.0291 14.7346 10.026 14.7667 10.0297C15.2505 10.0484 15.7245 10.1721 16.1557 10.3922C16.6823 10.6572 17.1119 11.0816 17.3833 11.6049C17.5361 11.9105 17.6385 12.2388 17.6865 12.5771C17.6954 12.6212 17.702 12.6658 17.7062 12.7106C17.7145 12.8094 17.7178 12.9083 17.726 13.0302C17.726 13.0418 17.7277 13.0566 17.7277 13.0797Z" fill="white"/>
<path d="M16.599 12.8523C16.5897 12.8941 16.568 12.9321 16.5369 12.9615C16.5058 12.9908 16.4666 13.0102 16.4243 13.0171H16.3881C16.3341 13.0206 16.2804 13.0064 16.2352 12.9766C16.19 12.9469 16.1558 12.9033 16.1376 12.8523C16.1274 12.8253 16.1207 12.797 16.1178 12.7683C16.1092 12.6574 16.0927 12.5473 16.0684 12.4387C16.0194 12.219 15.8946 12.0235 15.7158 11.8867C15.6294 11.8247 15.533 11.7779 15.4307 11.7483C15.3006 11.7104 15.1638 11.7203 15.0353 11.689C14.9718 11.6777 14.9153 11.6418 14.8782 11.589C14.8412 11.5362 14.8266 11.4708 14.8376 11.4072C14.8498 11.3463 14.8839 11.292 14.9333 11.2544C14.9827 11.2168 15.0442 11.1985 15.1061 11.2029C15.8608 11.2573 16.4243 11.6198 16.5693 12.4288C16.5842 12.5039 16.5947 12.5799 16.6006 12.6562C16.6099 12.7213 16.6093 12.7874 16.599 12.8523Z" fill="white"/>
</svg>
