<svg width="71" height="70" viewBox="0 0 71 70" fill="none" xmlns="http://www.w3.org/2000/svg">
<circle cx="35.668" cy="35" r="35" fill="#878787" fill-opacity="0.09"/>
<path d="M51.3256 26.9841C50.9492 25.5564 49.8458 24.431 48.4466 24.0466C45.8903 23.333 35.665 23.333 35.665 23.333C35.665 23.333 25.4401 23.333 22.8838 24.0195C21.5115 24.4035 20.3812 25.5566 20.0047 26.9841C19.332 29.5918 19.332 34.9997 19.332 34.9997C19.332 34.9997 19.332 40.4348 20.0047 43.0152C20.3816 44.4427 21.4846 45.5682 22.884 45.9526C25.467 46.6663 35.6654 46.6663 35.6654 46.6663C35.6654 46.6663 45.8903 46.6663 48.4466 45.9799C49.846 45.5956 50.9492 44.4702 51.326 43.0427C51.9986 40.4348 51.9986 35.0271 51.9986 35.0271C51.9986 35.0271 52.0255 29.5918 51.3256 26.9841V26.9841ZM32.4095 39.9957V30.0037L40.9123 34.9997L32.4095 39.9957Z" fill="black"/>
</svg>
